# Blender 4.2.3 LTS
# www.blender.org
mtllib SlopeA.mtl
o Slope
v -0.850448 -1.000000 4.694133
v -0.850448 -0.254861 4.694133
v -1.000000 -1.000000 -1.000000
v -1.000000 1.000000 -1.000000
v 0.850448 -1.000000 3.642015
v 0.850448 -0.254861 3.642015
v 1.000000 -1.000000 -1.000000
v 1.000000 1.000000 -1.000000
v 0.328799 -1.000000 6.330259
v 0.328799 -0.254861 6.330259
v 1.247094 -0.254861 4.553539
v 1.247094 -1.000000 4.553539
v 1.643111 -1.000000 6.948087
v 1.643111 -0.254861 6.948087
v 1.932156 -0.254861 4.969084
v 1.932156 -1.000000 4.969084
v 2.488172 -1.037838 7.056140
v 2.476493 -0.849086 7.083307
v 2.725758 -0.772823 5.100368
v 2.737438 -0.961575 5.073200
v 3.934103 -0.980382 7.224216
v 3.795984 -0.791630 7.251384
v 4.045250 -0.715367 5.268444
v 4.183369 -0.904119 5.241277
vn -0.9997 -0.0000 0.0263
vn -0.0000 -0.0000 -1.0000
vn 0.9995 -0.0000 0.0322
vn 0.9853 -0.0000 -0.1708
vn 0.9822 -0.0000 -0.1880
vn -0.8112 -0.0000 0.5847
vn -0.6387 -0.0000 0.7694
vn -0.0000 -1.0000 -0.0000
vn 0.0669 0.9696 0.2354
vn 0.0279 0.9948 0.0980
vn 0.0404 0.9890 0.1421
vn 0.0012 -1.0000 -0.0084
vn 0.0015 -0.9999 -0.0104
vn -0.0000 1.0000 -0.0000
vn 0.9169 -0.0000 -0.3990
vn 0.5518 0.8290 0.0909
vn -0.2911 -0.0157 0.9566
vn -0.3260 -0.0117 0.9453
vn 0.5186 -0.0000 -0.8550
vn 0.3841 0.0121 -0.9232
vn 0.3460 0.0154 -0.9381
vn 0.0231 -0.9994 -0.0259
vn 0.0232 -0.9994 -0.0259
vn 0.0435 -0.9985 -0.0329
vn 0.1367 0.0956 -0.9860
vn 0.1332 0.1080 -0.9852
vn -0.1326 -0.1103 0.9850
vn -0.1370 -0.0949 0.9860
vn 0.8092 0.5743 0.1238
vn -0.1110 -0.1846 0.9765
vn -0.0476 0.9983 0.0324
vn 0.1110 0.1846 -0.9765
vt 0.375000 0.000000
vt 0.625000 0.000000
vt 0.625000 0.250000
vt 0.375000 0.250000
vt 0.625000 0.500000
vt 0.375000 0.500000
vt 0.625000 0.750000
vt 0.375000 0.750000
vt 0.125000 0.500000
vt 0.125000 0.750000
vt 0.875000 0.500000
vt 0.875000 0.750000
vt 0.625000 1.000000
vt 0.375000 1.000000
s 1
f 1/1/1 2/2/1 4/3/1 3/4/1
f 3/4/2 4/3/2 8/5/2 7/6/2
f 7/6/3 8/5/3 6/7/4 5/8/5
f 2/2/6 1/1/6 9/1/7 10/2/7
f 3/9/8 7/6/8 5/8/8 1/10/8
f 8/5/9 4/11/9 2/12/10 6/7/11
f 9/10/8 12/8/8 16/8/12 13/10/13
f 1/10/8 5/8/8 12/8/8 9/10/8
f 6/7/11 2/12/10 10/12/14 11/7/14
f 5/8/5 6/7/4 11/7/15 12/8/15
f 15/7/16 14/12/16 18/12/16 19/7/16
f 10/2/7 9/1/7 13/1/17 14/2/18
f 11/7/14 10/12/14 14/12/14 15/7/14
f 12/8/19 11/7/19 15/7/20 16/8/21
f 17/10/22 20/8/23 24/8/24 21/10/24
f 16/8/21 15/7/20 19/7/25 20/8/26
f 13/10/13 16/8/12 20/8/23 17/10/22
f 14/2/18 13/1/17 17/1/27 18/2/28
f 24/8/29 23/7/29 22/13/29 21/14/29
f 18/2/28 17/1/27 21/1/30 22/2/30
f 19/7/31 18/12/31 22/12/31 23/7/31
f 20/8/26 19/7/25 23/7/32 24/8/32
